# xmcd
#
# Track frame offsets:
#	150
#	11625
#	21275
#	33840
#	46760
#	56965
#	71755
#	83900
#	96070
#	107740
#	118530
#	128105
#	146515
#	157655
#
# Disc length: 2267 seconds
#
# Revision: 0
# Processed by: cddbd v1.5.1PL0 Copyright (c) Steve Scherf et al.
# Submitted via: EasyCDDAExtractor 8.0.1.1
#
DISCID=b108d90e
DTITLE=Jam Rock Band - En liian vanha rokkaamaan
DYEAR=1900
DGENRE=Oldies
TTITLE0=rock'n'rolli sielussa soi
TTITLE1=rakkauden kirja
TTITLE2=donna
TTITLE3=v8-rock
TTITLE4=viiniä vain
TTITLE5=enkeli
TTITLE6=kokkaan ja kuuraan
TTITLE7=en unta saa
TTITLE8=mahdollisuus
TTITLE9=kulman taakse kurkkaan
TTITLE10=mä olen rock
TTITLE11=hys nyt vain
TTITLE12=rock'n'rolli-olli
TTITLE13=en liian vanha rokkaamaan
EXTD=
EXTT0=
EXTT1=
EXTT2=
EXTT3=
EXTT4=
EXTT5=
EXTT6=
EXTT7=
EXTT8=
EXTT9=
EXTT10=
EXTT11=
EXTT12=
EXTT13=
PLAYORDER=
